PathFileType	4	(X/Y/Z)	./resultDataOpenSim/trcMotMarkerGrf/sub10/qtm-01-07.trc
DataRate	CameraRate	NumFrames	NumMarkers	Units	OrigDataRate	OrigDataStartFrame	OrigNumFrames
250.000000	250.000000	8	24	m	250.000000	175	464
Frame#	Time	L.Toe.Tip			R.Toe.Tip			L.Ankle.Lat			R.Ankle.Lat			L.Ankle.Med			R.Ankle.Med			L.Heel			R.Heel			L.Knee.Lat			R.Knee.Lat			L.Knee.Med			R.Knee.Med			L.Thigh.Upper			R.Thigh.Upper			L.ASIS			R.ASIS			V.Sacral			L.Acromium			R.Acromium			C7			L.Elbow			R.Elbow			L.Wrist.Lat			R.Wrist.Lat
		X1	Y1	Z1	X2	Y2	Z2	X3	Y3	Z3	X4	Y4	Z4	X5	Y5	Z5	X6	Y6	Z6	X7	Y7	Z7	X8	Y8	Z8	X9	Y9	Z9	X10	Y10	Z10	X11	Y11	Z11	X12	Y12	Z12	X13	Y13	Z13	X14	Y14	Z14	X15	Y15	Z15	X16	Y16	Z16	X17	Y17	Z17	X18	Y18	Z18	X19	Y19	Z19	X20	Y20	Z20	X21	Y21	Z21	X22	Y22	Z22	X23	Y23	Z23	X24	Y24	Z24

175	0.696	0.053644501	0.049514253	-0.056920102	-0.68566673	0.038855305	0.056387637	-0.081371078	0.06561538	-0.085340721	-0.79173563	0.12904477	0.090767005	-0.07464488	0.092511084	-0.0022217399	-0.75415615	0.13699234	0.010571702	-0.14316326	0.035329676	-0.037828753	-0.84147614	0.13576006	0.038921531	-0.12930159	0.45342806	-0.1263404	-0.52620363	0.4246189	0.12621948	-0.12246329	0.43596473	-0.0048726393	-0.48294815	0.41210996	0.00025616942	-0.26633994	0.81444497	-0.19173477	-0.40764831	0.80697515	0.173984	-0.24549367	0.91656747	-0.10738806	-0.3034779	0.88977334	0.13356912	-0.4742871	0.91132308	-0.037868081	-0.36065389	1.3675635	-0.1592373	-0.35724924	1.3577262	0.17128632	-0.4482761	1.394781	0.0034820264	-0.5262329	1.068132	-0.21860094	-0.31007227	1.0023255	0.20066968	-0.44909457	0.84082915	-0.26684544	-0.069810691	0.92645225	0.22053291
176	0.7	0.05446251	0.048453461	-0.056833118	-0.68463455	0.038733613	0.056436607	-0.080694804	0.06573735	-0.085169892	-0.7865863	0.13389446	0.091266255	-0.073972291	0.092539362	-0.0021337063	-0.74753826	0.14015314	0.011917546	-0.14278198	0.035627448	-0.038028413	-0.83495222	0.14216948	0.038390194	-0.12281995	0.45454459	-0.12607878	-0.51428517	0.42461913	0.12669449	-0.11660519	0.43741399	-0.0046296783	-0.47281626	0.41159649	0.0011810386	-0.25909561	0.81601232	-0.19246786	-0.39961307	0.80683212	0.17366988	-0.23866784	0.91847925	-0.10755968	-0.29505079	0.89035737	0.13220633	-0.46742102	0.91265959	-0.036805522	-0.35413025	1.368468	-0.15936361	-0.35070111	1.3588138	0.17103225	-0.44171114	1.395623	0.0033613468	-0.51857072	1.068836	-0.21936571	-0.30515871	1.0028886	0.19936549	-0.44293842	0.84119013	-0.26716823	-0.065174975	0.92617314	0.21965081
177	0.704	0.055269926	0.047548427	-0.056488874	-0.68350778	0.038603408	0.056489155	-0.080016631	0.065807459	-0.08495054	-0.78072567	0.13874036	0.091714835	-0.073392102	0.09253232	-0.0019706236	-0.74025327	0.14313124	0.013322604	-0.14246016	0.035859549	-0.038251538	-0.82750795	0.14860292	0.037783138	-0.11674287	0.45543644	-0.12584782	-0.50034619	0.42416288	0.12687558	-0.11095734	0.43869305	-0.0044198639	-0.46223909	0.41089382	0.0022776669	-0.25134791	0.8177347	-0.1928686	-0.39157515	0.80672579	0.17333971	-0.2318491	0.92040514	-0.10774774	-0.28660043	0.89117476	0.13067813	-0.46110351	0.91399158	-0.035895256	-0.3476462	1.369421	-0.15951663	-0.34416773	1.3599344	0.17076	-0.43516018	1.3964979	0.0032290583	-0.51086566	1.0695834	-0.22005448	-0.30040757	1.0035876	0.19836565	-0.4366825	0.84163082	-0.26752655	-0.060701306	0.92588542	0.21879174
178	0.708	0.056021712	0.046806485	-0.055925447	-0.68226691	0.03847465	0.056539759	-0.079370406	0.065842151	-0.084674296	-0.77417071	0.14350335	0.092113224	-0.072938595	0.092489349	-0.001702356	-0.7323659	0.14587879	0.014755687	-0.1422003	0.036029517	-0.03845319	-0.81926412	0.15498662	0.037177773	-0.11113935	0.45608775	-0.12563987	-0.48608155	0.42363328	0.12715735	-0.10561863	0.43973716	-0.0042658069	-0.4511791	0.40998532	0.0035202566	-0.24347658	0.81962154	-0.19292849	-0.38353331	0.80663764	0.17297691	-0.22504589	0.92234426	-0.10795399	-0.27829043	0.89216774	0.12913239	-0.45491633	0.91534546	-0.035013406	-0.34118947	1.3704151	-0.15968767	-0.33764261	1.361067	0.17046034	-0.42853489	1.3973817	0.0030142402	-0.50313325	1.0703636	-0.22068822	-0.29581337	1.0043895	0.19755674	-0.43031496	0.84212894	-0.2679148	-0.05636428	0.92557425	0.21795155
179	0.712	0.05667973	0.046190762	-0.055243231	-0.68089684	0.038331482	0.05657437	-0.07879378	0.06586703	-0.084347897	-0.76707481	0.14808184	0.092508305	-0.072604895	0.092420546	-0.0013179195	-0.7239956	0.14839248	0.016183278	-0.1420035	0.036150884	-0.038612328	-0.81048573	0.16124499	0.036743338	-0.10602606	0.45649925	-0.12543656	-0.4737096	0.42336908	0.12773057	-0.10067719	0.44050423	-0.0041756675	-0.4396414	0.4088455	0.0048956773	-0.23602029	0.82151542	-0.19288506	-0.3754862	0.80654854	0.17256769	-0.21828317	0.92428717	-0.10818621	-0.27040491	0.89319654	0.12785569	-0.44839372	0.91662686	-0.034319367	-0.33474769	1.3714541	-0.1598657	-0.33112813	1.3622081	0.1701339	-0.42182762	1.3982568	0.0027180439	-0.49538612	1.0711699	-0.22125444	-0.29127815	1.0052752	0.19677189	-0.42383932	0.8426745	-0.26833465	-0.052131503	0.92520902	0.21712844
180	0.716	0.057235648	0.045658817	-0.054560274	-0.67941172	0.038133855	0.056596886	-0.078305106	0.065894698	-0.083992365	-0.75956247	0.15239548	0.09297207	-0.072348258	0.092308865	-0.00085531501	-0.71527668	0.15070013	0.017596567	-0.14186616	0.036234787	-0.038722141	-0.80133048	0.16735619	0.03657441	-0.10135965	0.45669982	-0.1252131	-0.46443878	0.42339645	0.12850984	-0.096143808	0.44099429	-0.0041047525	-0.42765543	0.40745126	0.0063969128	-0.22902849	0.82328447	-0.19294198	-0.36743978	0.80644537	0.17210887	-0.2115693	0.9262153	-0.10844489	-0.26305934	0.89416778	0.12697589	-0.44120163	0.91767853	-0.034167197	-0.3283193	1.3725451	-0.16004095	-0.32464576	1.3633602	0.16978283	-0.41516139	1.399115	0.0024324764	-0.48763104	1.0719979	-0.22171505	-0.28672185	1.0062305	0.19593462	-0.41726102	0.84327152	-0.26879164	-0.047984538	0.92477505	0.21632485
181	0.72	0.057712436	0.045183166	-0.053967922	-0.67782579	0.037869404	0.056629459	-0.077897758	0.065919935	-0.08363114	-0.75164524	0.1564295	0.093559898	-0.072126053	0.092118326	-0.00039049747	-0.70632084	0.15283645	0.019003911	-0.14176538	0.036294268	-0.038758043	-0.79179303	0.17335488	0.036647743	-0.097071791	0.45674037	-0.1249515	-0.45704266	0.42356721	0.12949983	-0.091951769	0.44124193	-0.0039638587	-0.41525546	0.40579071	0.0080149243	-0.22221836	0.82489809	-0.19315632	-0.35940893	0.80632306	0.17160428	-0.20489435	0.92810615	-0.10872471	-0.25611427	0.89508108	0.1263776	-0.43330795	0.91837416	-0.034884022	-0.32190532	1.373684	-0.16020539	-0.31821033	1.3645141	0.16940529	-0.40863401	1.3999519	0.0022221016	-0.47987203	1.0728453	-0.22203831	-0.28213993	1.0072389	0.19508875	-0.4105789	0.84391975	-0.26928157	-0.043916975	0.92428055	0.21554799
182	0.724	0.058135451	0.044757544	-0.053492486	-0.67608737	0.037624624	0.056684722	-0.077552231	0.065927949	-0.083278724	-0.74329402	0.16023135	0.094304472	-0.071932537	0.091838992	1.1211554e-05	-0.69719143	0.15484045	0.020402657	-0.14167501	0.036342413	-0.038701218	-0.78185478	0.17928356	0.036953381	-0.093080787	0.45667654	-0.1246463	-0.44904903	0.42374871	0.13081502	-0.088048838	0.44128063	-0.0036967963	-0.40246968	0.40386774	0.0097432744	-0.21546053	0.82635905	-0.19353663	-0.35141538	0.80618009	0.17105826	-0.1982397	0.92993697	-0.10902323	-0.24936139	0.89596649	0.12588852	-0.4251452	0.91875643	-0.036423846	-0.31550193	1.3748541	-0.16035988	-0.31182049	1.3656523	0.16900347	-0.402218	1.4007648	0.0020594669	-0.47211239	1.073706	-0.22225793	-0.27756215	1.008277	0.19429898	-0.40379316	0.84460583	-0.26979415	-0.039924173	0.92373621	0.21480661
